<?xml version="1.0" standalone="no"?>
<!DOCTYPE svg PUBLIC "-//W3C//DTD SVG 20010904//EN"
 "http://www.w3.org/TR/2001/REC-SVG-20010904/DTD/svg10.dtd">
<svg version="1.0" xmlns="http://www.w3.org/2000/svg"
 width="450.000000pt" height="450.000000pt" viewBox="0 0 450.000000 450.000000"
 preserveAspectRatio="xMidYMid meet">

<g transform="translate(0.000000,450.000000) scale(0.100000,-0.100000)"
fill="#000000" stroke="none">
<path d="M692 4311 c-20 -12 -33 -81 -22 -116 64 -202 65 -593 5 -1515 -86
-1311 -95 -1539 -76 -1805 22 -298 76 -575 140 -710 36 -79 61 -97 116 -85 22
4 607 109 1300 231 693 123 1266 228 1272 235 7 7 17 14 23 16 16 5 3 30 -25
51 -22 16 -31 16 -122 3 -54 -8 -150 -20 -213 -26 -63 -7 -225 -28 -360 -47
-135 -20 -274 -39 -310 -44 -85 -11 -172 -23 -355 -49 -82 -11 -213 -30 -290
-40 -77 -11 -198 -29 -270 -40 -113 -17 -147 -19 -255 -10 -156 12 -239 25
-254 41 -8 8 -8 13 2 16 6 3 12 16 12 29 0 17 6 24 20 24 11 0 20 6 20 13 0 8
9 22 19 31 16 14 18 23 10 49 -5 17 -13 35 -19 41 -19 19 -10 70 21 116 27 38
48 53 150 104 l118 58 168 15 c159 13 648 22 833 14 115 -5 259 18 562 88 101
24 127 35 188 75 65 44 148 86 200 102 l45 14 -38 -5 c-21 -2 -136 -14 -254
-26 -211 -21 -217 -21 -230 -3 -11 15 -13 131 -11 670 2 359 7 656 11 661 5 4
56 10 113 11 70 3 104 8 104 15 0 7 7 57 15 111 24 162 38 146 -123 146 l-137
0 -19 -152 c-11 -84 -21 -182 -23 -218 -2 -36 -7 -74 -12 -85 -5 -11 -14 -67
-21 -125 -6 -58 -14 -120 -17 -138 -5 -31 -4 -33 18 -30 22 3 24 -1 27 -49 l3
-53 -34 0 -34 0 -19 -152 -19 -153 52 -3 53 -3 0 -49 c0 -28 -3 -50 -6 -50
-36 0 -652 -52 -1130 -95 -330 -30 -617 -55 -637 -55 -21 0 -39 6 -44 14 -15
27 97 2029 116 2063 9 18 22 23 74 26 l62 3 -69 2 c-55 2 -75 -2 -104 -20
l-35 -21 -18 22 c-11 13 -16 27 -13 32 3 5 -4 19 -15 31 -12 12 -21 30 -21 40
0 11 -6 31 -14 46 -18 37 -39 186 -31 225 10 45 60 121 107 161 22 19 72 51
113 72 l73 38 184 -19 c100 -9 228 -21 283 -26 133 -11 214 -19 250 -24 17 -3
84 -9 150 -15 309 -25 522 -51 624 -77 24 -6 24 -6 5 14 -10 11 -22 18 -26 16
-5 -2 -8 1 -8 7 0 6 -4 9 -9 5 -5 -3 -12 -1 -16 5 -4 6 -11 8 -16 5 -5 -4 -9
-1 -9 5 0 6 -4 8 -10 5 -5 -3 -10 -1 -10 5 0 7 -7 10 -15 6 -8 -3 -15 0 -15 6
0 6 -3 8 -7 5 -3 -4 -12 -2 -20 4 -7 6 -13 8 -13 4 0 -4 -6 -2 -14 4 -44 36
-387 112 -816 180 -574 91 -918 128 -958 102z m245 -3913 c-2 -18 -4 -6 -4 27
0 33 2 48 4 33 2 -15 2 -42 0 -60z"/>
<path d="M1273 3453 c9 -2 25 -2 35 0 9 3 1 5 -18 5 -19 0 -27 -2 -17 -5z"/>
<path d="M1413 3443 c9 -2 25 -2 35 0 9 3 1 5 -18 5 -19 0 -27 -2 -17 -5z"/>
<path d="M1563 3433 c9 -2 25 -2 35 0 9 3 1 5 -18 5 -19 0 -27 -2 -17 -5z"/>
<path d="M1713 3423 c9 -2 25 -2 35 0 9 3 1 5 -18 5 -19 0 -27 -2 -17 -5z"/>
<path d="M1868 3413 c6 -2 18 -2 25 0 6 3 1 5 -13 5 -14 0 -19 -2 -12 -5z"/>
<path d="M2018 3403 c7 -3 16 -2 19 1 4 3 -2 6 -13 5 -11 0 -14 -3 -6 -6z"/>
<path d="M1151 3308 c1 -23 3 -26 6 -11 4 18 8 21 27 14 12 -5 80 -14 151 -21
71 -6 132 -13 135 -15 4 -2 33 -6 66 -10 32 -3 84 -8 114 -11 30 -4 70 -8 88
-9 18 -1 38 -7 43 -12 14 -14 -3 -119 -18 -116 -16 3 -40 -60 -25 -65 7 -2 10
-8 6 -13 -8 -13 -42 -11 -47 4 -2 6 -8 9 -12 4 -5 -4 -3 -13 3 -19 9 -9 5 -15
-18 -24 -34 -15 -40 -34 -11 -34 22 0 30 -9 36 -40 4 -19 -2 -20 -83 -22 -57
0 -23 -4 97 -10 101 -5 185 -7 187 -6 3 4 34 346 34 381 l0 23 -377 22 c-208
13 -384 22 -390 22 -8 0 -12 -13 -12 -32z"/>
<path d="M2040 3250 c0 -22 3 -39 8 -38 4 1 17 -1 30 -6 18 -6 21 -12 15 -34
-3 -15 -10 -30 -15 -33 -5 -3 -18 -44 -28 -89 -21 -101 -14 -139 28 -142 15 0
5 -4 -23 -7 -37 -5 -9 -8 104 -14 85 -4 156 -6 158 -3 4 3 41 338 43 378 0 3
-44 9 -97 12 -54 4 -126 9 -160 11 l-63 6 0 -41z"/>
<path d="M2446 3094 c-9 -93 -20 -178 -22 -190 -5 -20 -1 -21 122 -28 70 -3
137 -9 149 -12 21 -5 22 1 44 182 12 103 19 190 14 194 -4 5 -71 11 -148 15
l-141 7 -18 -168z"/>
<path d="M2856 3233 c-3 -4 -6 -23 -6 -44 0 -33 -18 -175 -35 -285 l-5 -31
117 -7 c65 -4 128 -9 139 -12 20 -5 22 0 33 88 7 51 18 134 25 185 l13 92 -51
5 c-100 10 -224 15 -230 9z"/>
<path d="M2032 3155 c0 -16 2 -22 5 -12 2 9 2 23 0 30 -3 6 -5 -1 -5 -18z"/>
<path d="M2022 3045 c0 -16 2 -22 5 -12 2 9 2 23 0 30 -3 6 -5 -1 -5 -18z"/>
<path d="M2012 2945 c0 -16 2 -22 5 -12 2 9 2 23 0 30 -3 6 -5 -1 -5 -18z"/>
<path d="M1338 2913 c29 -2 74 -2 100 0 26 2 2 3 -53 3 -55 0 -76 -1 -47 -3z"/>
<path d="M3181 2884 c0 -11 3 -14 6 -6 3 7 2 16 -1 19 -3 4 -6 -2 -5 -13z"/>
<path d="M3172 2820 c0 -14 2 -19 5 -12 2 6 2 18 0 25 -3 6 -5 1 -5 -13z"/>
<path d="M1121 2774 c1 -29 1 -29 9 -4 4 14 8 19 9 13 1 -8 17 -13 44 -13 23
-1 78 -7 121 -15 44 -8 91 -11 106 -8 22 4 28 1 33 -17 5 -20 11 -22 41 -17
39 6 53 -10 27 -30 -15 -11 -15 -12 0 -13 21 0 58 -40 37 -40 -10 0 -14 -12
-14 -45 1 -40 3 -45 21 -43 16 2 19 -2 17 -20 -2 -13 3 -25 12 -28 9 -3 16
-13 16 -20 0 -8 7 -17 15 -20 29 -12 14 -23 -37 -29 -29 -3 -145 -10 -258 -14
-200 -8 -196 -8 163 -9 202 -1 367 -1 368 1 1 3 36 382 35 384 -1 1 -173 5
-383 9 l-383 7 1 -29z m449 -88 c0 -8 6 -16 13 -19 6 -2 9 -8 5 -11 -3 -4 -16
2 -27 13 -25 25 -26 31 -6 31 8 0 15 -6 15 -14z"/>
<path d="M1987 2707 c-8 -104 2 -227 20 -249 13 -14 12 -17 -9 -24 -13 -4 -26
-7 -30 -6 -5 1 -8 -2 -8 -7 0 -7 296 -22 307 -16 2 1 41 369 39 371 -1 1 -71
4 -157 6 l-156 5 -6 -80z"/>
<path d="M2406 2768 c-2 -7 -9 -71 -16 -143 -6 -71 -13 -146 -16 -166 l-6 -35
146 -10 c97 -6 146 -6 146 1 0 6 11 87 23 181 l23 172 -59 6 c-105 11 -237 7
-241 -6z"/>
<path d="M3161 2744 c0 -11 3 -14 6 -6 3 7 2 16 -1 19 -3 4 -6 -2 -5 -13z"/>
<path d="M3152 2680 c0 -14 2 -19 5 -12 2 6 2 18 0 25 -3 6 -5 1 -5 -13z"/>
<path d="M3142 2610 c0 -14 2 -19 5 -12 2 6 2 18 0 25 -3 6 -5 1 -5 -13z"/>
<path d="M1973 2535 c0 -22 2 -30 4 -17 2 12 2 30 0 40 -3 9 -5 -1 -4 -23z"/>
<path d="M3131 2544 c0 -11 3 -14 6 -6 3 7 2 16 -1 19 -3 4 -6 -2 -5 -13z"/>
<path d="M3158 2503 c23 -2 59 -2 80 0 20 2 1 4 -43 4 -44 0 -61 -2 -37 -4z"/>
<path d="M2429 2313 l-75 -4 -13 -122 c-7 -67 -15 -134 -18 -148 l-5 -26 143
-6 c79 -3 144 -5 145 -4 2 1 10 59 18 127 9 69 18 140 21 158 l6 32 -73 -2
c-40 -1 -107 -4 -149 -5z"/>
<path d="M1979 2303 l-36 -4 -6 -92 c-4 -51 -9 -120 -13 -154 l-7 -63 117 -2
c64 -1 133 -2 153 -2 l38 -1 12 130 c6 72 14 145 17 163 l5 32 -122 -2 c-67
-1 -138 -3 -158 -5z"/>
<path d="M1288 2293 l-198 -3 0 -31 c0 -17 4 -28 9 -25 4 3 16 -1 27 -8 16
-12 17 -18 7 -37 -17 -34 -44 -175 -37 -193 5 -13 27 -16 123 -18 l116 -1
-133 -10 c-73 -5 -131 -11 -129 -14 3 -2 133 1 288 7 156 7 321 10 366 9 96
-5 88 -16 98 136 3 50 8 114 12 143 l5 52 -178 -2 c-99 -2 -268 -4 -376 -5z"/>
<path d="M2983 2145 c-35 -34 -63 -69 -63 -76 0 -8 11 -31 25 -50 13 -20 40
-71 60 -113 29 -62 37 -94 42 -159 5 -73 3 -86 -17 -122 -71 -124 -85 -155
-93 -200 -4 -27 -8 -61 -8 -75 -1 -14 -5 -32 -10 -41 -18 -35 24 -29 110 13
65 32 80 43 64 46 -13 2 -23 5 -23 7 0 2 51 82 113 177 62 95 123 189 135 209
l22 37 -120 176 c-66 96 -120 182 -120 191 0 8 -6 15 -14 15 -8 0 -16 7 -20
15 -8 23 -16 18 -83 -50z"/>
<path d="M3472 2170 c-20 -10 -61 -45 -90 -79 -30 -34 -58 -58 -64 -55 -5 4 7
-21 28 -54 22 -33 44 -62 49 -63 9 -3 175 237 175 252 0 15 -63 14 -98 -1z"/>
<path d="M1081 2114 c0 -11 3 -14 6 -6 3 7 2 16 -1 19 -3 4 -6 -2 -5 -13z"/>
<path d="M2525 1913 c-22 -2 -81 -5 -131 -9 l-90 -6 -17 -151 c-10 -84 -17
-156 -17 -162 0 -14 290 -17 290 -3 0 10 27 240 34 295 5 35 -3 40 -69 36z"/>
<path d="M2046 1887 c-77 -4 -141 -8 -142 -10 -4 -4 -36 -329 -32 -331 2 -2
69 -6 150 -9 110 -5 149 -3 155 6 7 12 32 248 33 318 0 22 -5 35 -12 35 -7 0
-76 -4 -152 -9z"/>
<path d="M1339 1852 l-277 -15 -6 -71 c-18 -214 -19 -296 -5 -296 8 0 127 9
264 21 138 11 298 21 356 22 l106 1 12 151 c6 82 11 162 11 178 l0 27 -92 -2
c-51 0 -217 -8 -369 -16z"/>
<path d="M3357 1629 c-47 -76 -68 -113 -56 -102 14 13 19 7 57 -72 30 -62 72
-105 104 -105 32 0 103 26 134 49 21 16 21 16 -24 26 -44 9 -49 15 -114 110
-86 125 -83 122 -101 94z"/>
<path d="M3458 543 c7 -3 16 -2 19 1 4 3 -2 6 -13 5 -11 0 -14 -3 -6 -6z"/>
</g>
</svg>
